<svg id="图层_1" data-name="图层 1" xmlns="http://www.w3.org/2000/svg" viewBox="0 0 46.46 47.94"><defs><style>.cls-1{fill:blue;}.cls-2{fill:#1754ff;}</style></defs><path d="M9.37,39.54H6.2v-1a1.89,1.89,0,0,0-.12-.86.43.43,0,0,0-.4-.19.52.52,0,0,0-.47.25,1.52,1.52,0,0,0-.15.76,2.29,2.29,0,0,0,.17,1,2.66,2.66,0,0,0,1,.8,9.81,9.81,0,0,1,2.86,2.21,5.12,5.12,0,0,1,.59,2.79,4.85,4.85,0,0,1-.33,2.06,2.59,2.59,0,0,1-1.26,1.11,5,5,0,0,1-2.19.45,4.8,4.8,0,0,1-2.33-.52,2.53,2.53,0,0,1-1.26-1.31A6.78,6.78,0,0,1,2,44.83V44H5.14v1.59a2.12,2.12,0,0,0,.13,1,.52.52,0,0,0,.47.21.56.56,0,0,0,.51-.27,1.53,1.53,0,0,0,.16-.79,2.44,2.44,0,0,0-.31-1.51A10,10,0,0,0,4.51,43a15.11,15.11,0,0,1-1.68-1.22,2.91,2.91,0,0,1-.69-1A4.66,4.66,0,0,1,1.87,39a4.72,4.72,0,0,1,.39-2.2A2.56,2.56,0,0,1,3.5,35.7a5,5,0,0,1,2.07-.4,5.52,5.52,0,0,1,2.26.43,2.38,2.38,0,0,1,1.23,1.08A5.74,5.74,0,0,1,9.37,39Z" transform="translate(-1.87 -1)"/><path d="M20.74,35.58l1.94,13.09H19.21L19,46.31H17.81l-.21,2.36H14.08l1.74-13.09ZM18.93,44q-.25-2.22-.51-5.49c-.35,2.5-.57,4.34-.66,5.49Z" transform="translate(-1.87 -1)"/><path d="M35,35.58V48.67H32l-1.77-6v6H27.4V35.58h2.85l1.9,5.89V35.58Z" transform="translate(-1.87 -1)"/><path d="M46.39,35.58l1.94,13.09H44.85l-.18-2.36H43.46l-.21,2.36H39.73l1.74-13.09ZM44.58,44q-.26-2.22-.52-5.49c-.34,2.5-.56,4.34-.65,5.49Z" transform="translate(-1.87 -1)"/><path class="cls-1" d="M31.5,3.82v6.5H24V3.77a.46.46,0,1,0-.92,0v7.45H31.5V22.67l-7.92,2.82-7.92-2.82V16.31h7.47V22.7a.45.45,0,0,0,.45.41.46.46,0,0,0,.46-.46V15.43H15.66V3.82L23.58,1Z" transform="translate(-1.87 -1)"/><polygon class="cls-2" points="29.63 2.82 29.63 9.32 22.17 9.32 22.17 0.17 29.63 2.82"/><polygon class="cls-2" points="21.25 15.31 21.25 24.31 13.79 21.67 13.79 15.31 21.25 15.31"/></svg>